<?xml version="1.0" encoding="UTF-8" standalone="no"?>
<!-- Created with Inkscape (http://www.inkscape.org/) -->

<svg
   xmlns:dc="http://purl.org/dc/elements/1.1/"
   xmlns:cc="http://creativecommons.org/ns#"
   xmlns:rdf="http://www.w3.org/1999/02/22-rdf-syntax-ns#"
   xmlns:svg="http://www.w3.org/2000/svg"
   xmlns="http://www.w3.org/2000/svg"
   xmlns:xlink="http://www.w3.org/1999/xlink"
   xmlns:sodipodi="http://sodipodi.sourceforge.net/DTD/sodipodi-0.dtd"
   xmlns:inkscape="http://www.inkscape.org/namespaces/inkscape"
   id="svg3004"
   version="1.1"
   inkscape:version="0.48.4 r9939"
   width="1024"
   height="313.23779"
   xml:space="preserve"
   sodipodi:docname="logo-title.svg"><metadata
     id="metadata3010"><rdf:RDF><cc:Work
         rdf:about=""><dc:format>image/svg+xml</dc:format><dc:type
           rdf:resource="http://purl.org/dc/dcmitype/StillImage" /><dc:title /></cc:Work></rdf:RDF></metadata><defs
     id="defs3008"><linearGradient
       id="linearGradient4025"><stop
         id="stop4027"
         offset="0"
         style="stop-color:#001a30;stop-opacity:1;" /><stop
         id="stop4029"
         offset="1"
         style="stop-color:#001a30;stop-opacity:0;" /></linearGradient><linearGradient
       inkscape:collect="always"
       xlink:href="#linearGradient4025"
       id="linearGradient7552"
       gradientUnits="userSpaceOnUse"
       x1="206.80417"
       y1="80.044655"
       x2="868.73816"
       y2="80.044655"
       gradientTransform="matrix(0.8,0,0,-0.8,247.1241,786.11266)" /><linearGradient
       inkscape:collect="always"
       xlink:href="#linearGradient4025"
       id="linearGradient3035"
       gradientUnits="userSpaceOnUse"
       gradientTransform="matrix(0.8,0,0,-0.8,247.1241,786.11266)"
       x1="206.80417"
       y1="80.044655"
       x2="868.73816"
       y2="80.044655" /><linearGradient
       inkscape:collect="always"
       xlink:href="#linearGradient4025"
       id="linearGradient3066"
       gradientUnits="userSpaceOnUse"
       gradientTransform="matrix(0.8,0,0,-0.8,247.1241,786.11266)"
       x1="206.80417"
       y1="80.044655"
       x2="868.73816"
       y2="80.044655" /></defs><sodipodi:namedview
     pagecolor="#ffffff"
     bordercolor="#666666"
     borderopacity="1"
     objecttolerance="10"
     gridtolerance="10"
     guidetolerance="10"
     inkscape:pageopacity="1"
     inkscape:pageshadow="2"
     inkscape:window-width="1200"
     inkscape:window-height="1797"
     id="namedview3006"
     showgrid="false"
     inkscape:zoom="0.71777344"
     inkscape:cx="509.21361"
     inkscape:cy="156.6189"
     inkscape:window-x="0"
     inkscape:window-y="27"
     inkscape:window-maximized="1"
     inkscape:current-layer="g3041"
     fit-margin-top="0"
     fit-margin-left="0"
     fit-margin-right="0"
     fit-margin-bottom="0"
     units="px" /><g
     id="g3012"
     inkscape:groupmode="layer"
     inkscape:label="Logo"
     transform="matrix(1.25,0,0,-1.25,-432.63159,1057.0329)"
     style="display:inline"><g
       id="g3041"
       transform="matrix(1.3744751,0,0,1.3744751,-129.60779,-222.75671)"><g
         id="g3969"
         style="fill:#001a30;fill-opacity:1"
         transform="matrix(0.61924334,0,0,0.61924334,219.849,262.35035)"><path
           d="m 305.466,682.653 1.95,-21.242 -47.295,-17.004 2.081,22.69 43.264,15.556"
           style="fill:#001a30;fill-opacity:1;fill-rule:evenodd;stroke:none"
           id="path3971"
           inkscape:connector-curvature="0" /><path
           d="m 299.941,742.832 1.951,-21.24 -35.871,-12.897 2.083,22.691 31.837,11.446"
           style="fill:#001a30;fill-opacity:1;fill-rule:evenodd;stroke:none"
           id="path3973"
           inkscape:connector-curvature="0" /><path
           d="m 263.496,759.058 42.1055,0 0,6.68086 -42.1055,0 0,-6.68086 z"
           style="fill:#001a30;fill-opacity:1;fill-rule:evenodd;stroke:none"
           id="path3975"
           inkscape:connector-curvature="0" /></g><path
         inkscape:connector-curvature="0"
         id="path3977"
         style="fill:url(#linearGradient3066);fill-opacity:1;fill-rule:evenodd;stroke:none"
         d="m 942.11462,709.57906 0,24.93668 -529.54718,0.0591 z"
         sodipodi:nodetypes="cccc" /><path
         inkscape:connector-curvature="0"
         id="path3979"
         style="fill:#a7d1ec;fill-opacity:1;fill-rule:evenodd;stroke:none;display:inline"
         d="m 435.97731,668.52444 11.31605,12.4115 -11.31605,-6.86618 -20.33286,14.78754 20.33286,-20.33286" /><path
         inkscape:connector-curvature="0"
         id="path3981"
         style="fill:#00488c;fill-opacity:1;fill-rule:evenodd;stroke:none;display:inline"
         d="m 435.17353,777.22456 c 28.2666,-1.13445 53.00166,-16.07865 67.75142,-38.32559 l -53.26608,-0.0458 c -8.11208,14.88785 -14.48534,28.2344 -14.48534,38.37141 z m 75.15323,-52.02944 c 4.4889,-10.47636 6.97702,-22.02773 6.97702,-34.1618 0,-46.47669 -36.46291,-84.36014 -82.13025,-86.19496 76.13226,23.56531 45.76271,77.99804 20.63195,122.93033 l 54.52128,-2.57357" /><g
         id="g3983"
         style="fill:#00488c;fill-opacity:1;display:inline"
         transform="matrix(0.61924334,0,0,0.61924334,219.849,262.35035)"><path
           d="m 308.228,652.562 1.951,-21.242 -53.011,-19.057 2.084,22.691 48.976,17.608"
           style="fill:#00488c;fill-opacity:1;fill-rule:evenodd;stroke:none"
           id="path3985"
           inkscape:connector-curvature="0" /><path
           d="m 302.704,712.741 1.95,-21.239 -41.584,-14.951 2.083,22.69 37.551,13.5"
           style="fill:#00488c;fill-opacity:1;fill-rule:evenodd;stroke:none"
           id="path3987"
           inkscape:connector-curvature="0" /><path
           d="m 270.337,755.718 28.422,0 0.371,-4.036 -30.159,-10.843 1.366,14.879"
           style="fill:#00488c;fill-opacity:1;fill-rule:evenodd;stroke:none"
           id="path3989"
           inkscape:connector-curvature="0" /><path
           d="m 284.548,768.643 -14.211,0 c 0,7.91 6.362,14.322 14.211,14.322 7.848,0 14.209,-6.412 14.209,-14.322 l -14.209,0"
           style="fill:#00488c;fill-opacity:1;fill-rule:evenodd;stroke:none"
           id="path3991"
           inkscape:connector-curvature="0" /></g><path
         inkscape:connector-curvature="0"
         id="path3993"
         style="fill:#001a30;fill-opacity:1;fill-rule:evenodd;stroke:none"
         d="m 431.70268,777.30259 c 0.68921,0 1.38214,-0.007 2.06455,-0.0248 -28.09693,-4.03995 -75.94091,-21.17627 -75.94091,-86.2445 0,-27.85233 15.07115,-42.71169 37.47352,-49.40324 l 17.5704,6.29152 -0.0669,5.46853 10.4163,7.11821 10.54757,-7.17518 0.0954,-17.09668 -0.0954,0 0,-31.45137 c -0.68241,-0.0174 -1.37534,-0.0242 -2.06455,-0.0242 -47.2718,0 -85.5974,38.62592 -85.5974,86.27236 0,47.65016 38.3256,86.26927 85.5974,86.26927" /><g
         id="g3995"
         style="fill:#00488c;fill-opacity:1;stroke:#00488c;stroke-width:1.16407955;stroke-linejoin:round;stroke-miterlimit:4;stroke-opacity:1;stroke-dasharray:none"
         transform="matrix(0.61924334,0,0,0.61924334,219.35236,262.35035)"><path
           d="m 598.651,610.138 c 0,-9.215 -3.743,-17.452 -11.228,-24.706 -9.334,-8.988 -22.06,-13.477 -38.184,-13.477 -10.944,0 -21.657,1.899 -32.139,5.699 l -5.529,22.635 c 12.325,-9.677 25.689,-14.512 40.083,-14.512 7.722,0 14.201,1.787 19.442,5.354 5.24,3.573 7.858,8.005 7.858,13.303 0,5.071 -2.013,9.39 -6.049,12.958 -3.454,2.996 -11.256,7.258 -23.41,12.787 -12.15,5.53 -20.529,10.369 -25.136,14.513 -6.337,5.76 -9.503,12.787 -9.503,21.081 0,9.787 4.115,17.622 12.353,23.496 8.236,5.874 19.266,8.809 33.089,8.809 9.096,0 18.368,-1.324 27.815,-3.97 l 0,-20.736 c -8.18,7.949 -17.797,11.923 -28.855,11.923 -7.14,0 -12.929,-1.583 -17.362,-4.754 -4.438,-3.166 -6.654,-7.282 -6.654,-12.353 0,-4.49 1.758,-8.261 5.269,-11.313 3.516,-3.053 10.741,-7.112 21.686,-12.183 13.014,-5.987 21.885,-10.883 26.605,-14.687 6.564,-5.18 9.849,-11.805 9.849,-19.867"
           style="fill:#00488c;fill-opacity:1;fill-rule:nonzero;stroke:#00488c;stroke-width:1.16407955;stroke-linejoin:round;stroke-miterlimit:4;stroke-opacity:1;stroke-dasharray:none"
           id="path3997"
           inkscape:connector-curvature="0" /><path
           d="m 700.238,575.064 -30.409,0 c 3.223,2.42 5.212,4.551 5.959,6.394 0.751,1.843 1.125,5.699 1.125,11.573 l 0,32.309 c 0,7.373 -1.154,12.556 -3.455,15.553 -3.918,5.184 -9.792,7.773 -17.627,7.773 -7.599,0 -13.416,-2.42 -17.447,-7.259 -1.498,-1.724 -2.42,-3.426 -2.764,-5.094 -0.345,-1.673 -0.52,-4.981 -0.52,-9.933 l 0,-33.349 c 0,-5.874 0.345,-9.702 1.035,-11.488 0.694,-1.786 2.708,-3.946 6.049,-6.479 l -30.405,0 c 3.227,2.533 5.184,4.693 5.869,6.479 0.695,1.786 1.04,5.614 1.04,11.488 l 0,84.145 c 0,5.987 -0.317,9.815 -0.95,11.488 -0.629,1.668 -2.618,3.828 -5.959,6.479 l 12.608,0 c 4.952,0 8.525,1.153 10.713,3.454 l 0,-48.551 c 5.874,7.722 14.975,11.578 27.3,11.578 11.979,0 20.788,-3.974 26.435,-11.923 2.992,-4.144 4.49,-10.42 4.49,-18.832 l 0,-37.838 c 0,-5.756 0.345,-9.56 1.035,-11.403 0.694,-1.843 2.651,-4.031 5.878,-6.564"
           style="fill:#00488c;fill-opacity:1;fill-rule:nonzero;stroke:#00488c;stroke-width:1.16407955;stroke-linejoin:round;stroke-miterlimit:4;stroke-opacity:1;stroke-dasharray:none"
           id="path3999"
           inkscape:connector-curvature="0" /><path
           d="m 740.316,681.666 c 0,-3.223 -1.091,-5.931 -3.279,-8.119 -2.188,-2.188 -4.896,-3.285 -8.124,-3.285 -3.109,0 -5.755,1.097 -7.948,3.285 -2.188,2.188 -3.28,4.896 -3.28,8.119 0,3.109 1.12,5.76 3.37,7.948 2.244,2.188 4.981,3.284 8.203,3.284 2.997,0 5.591,-1.125 7.779,-3.369 2.188,-2.249 3.279,-4.868 3.279,-7.863 z m 4.15,-106.602 -30.235,0 c 3.223,2.533 5.179,4.693 5.874,6.479 0.69,1.786 1.035,5.614 1.035,11.488 l 0,48.207 c 0,5.873 -0.345,9.701 -1.035,11.487 -0.695,1.787 -2.651,3.946 -5.874,6.479 l 12.612,0 c 4.953,0 8.521,1.153 10.709,3.455 l 0,-69.628 c 0,-5.874 0.345,-9.702 1.04,-11.488 0.69,-1.786 2.646,-3.946 5.874,-6.479"
           style="fill:#00488c;fill-opacity:1;fill-rule:nonzero;stroke:#00488c;stroke-width:1.16407955;stroke-linejoin:round;stroke-miterlimit:4;stroke-opacity:1;stroke-dasharray:none"
           id="path4001"
           inkscape:connector-curvature="0" /><path
           d="m 852.796,618.431 c 0,-13.132 -4.177,-24.043 -12.527,-32.739 -8.351,-8.7 -18.803,-13.047 -31.36,-13.047 -4.721,0 -9.328,0.808 -13.822,2.419 l -9.844,14.857 c 7.141,-3.454 13.936,-5.183 20.387,-5.183 9.097,0 16.124,2.792 21.076,8.355 4.953,5.557 7.429,13.359 7.429,23.439 0,9.848 -2.562,17.792 -7.689,23.869 -5.122,6.077 -11.776,9.13 -19.951,9.13 -8.871,0 -15.954,-3.285 -21.252,-9.877 -2.996,-3.686 -4.494,-9.333 -4.494,-16.932 l 0,-67.326 c 0,-5.066 0.232,-8.407 0.69,-10.047 0.808,-3.114 2.882,-5.647 6.219,-7.603 l -30.235,0 c 3.341,1.956 5.416,4.489 6.219,7.603 0.463,1.494 0.695,4.835 0.695,10.019 l 0,85.87 c 0,5.873 -0.345,9.701 -1.04,11.487 -0.69,1.787 -2.646,3.946 -5.874,6.479 l 12.613,0 c 4.953,0 8.525,1.153 10.713,3.455 l 0,-14.168 c 7.254,8.757 17.277,13.133 30.065,13.133 11.975,0 22.111,-4.206 30.405,-12.613 7.717,-7.83 11.577,-18.023 11.577,-30.58"
           style="fill:#00488c;fill-opacity:1;fill-rule:nonzero;stroke:#00488c;stroke-width:1.16407955;stroke-linejoin:round;stroke-miterlimit:4;stroke-opacity:1;stroke-dasharray:none"
           id="path4003"
           inkscape:connector-curvature="0" /></g><g
         style="fill:#001a30;fill-opacity:1;stroke:#001a30;stroke-width:1.16407955;stroke-linecap:butt;stroke-linejoin:round;stroke-miterlimit:4;stroke-opacity:1;stroke-dasharray:none;display:inline"
         id="g4005"
         transform="matrix(0.61924334,0,0,0.61924334,219.35236,262.35035)"><path
           d="m 976.32,575.064 c -8.983,-0.69 -14.569,-1.035 -16.757,-1.035 -5.184,0 -9.65,1.21 -13.392,3.625 -3.739,2.391 -8.662,7.23 -14.768,14.456 -11.63,13.794 -22.286,28.883 -31.96,45.295 20.269,3.459 30.405,12.126 30.405,26.005 0,5.988 -2.041,10.827 -6.134,14.569 -4.087,3.715 -9.413,5.586 -15.977,5.586 -3.573,0 -7.835,-0.458 -12.788,-1.38 l 0,-83.885 c 0,-6.649 0.231,-10.996 0.69,-13.071 1.04,-4.721 3.516,-8.09 7.429,-10.165 l -34.554,0 c 3.918,2.075 6.394,5.472 7.429,10.193 0.463,2.075 0.694,6.451 0.694,13.133 l 0,73.427 c 0,6.682 -0.231,11.058 -0.694,13.133 -1.035,4.721 -3.511,8.118 -7.429,10.193 l 26.435,0 c 1.843,0 4.551,0 8.119,0 3.573,0 6.28,0 8.123,0 11.635,0 20.618,-2.363 26.951,-7.055 8.057,-5.988 12.093,-13.738 12.093,-23.27 0,-6.993 -2.765,-13.416 -8.289,-19.205 -5.529,-5.788 -12.613,-9.791 -21.251,-11.979 13.591,-18.255 24.441,-31.648 32.559,-40.14 8.124,-8.496 15.812,-14.63 23.066,-18.43"
           style="fill:#001a30;fill-opacity:1;fill-rule:nonzero;stroke:#001a30;stroke-width:1.16407955;stroke-linecap:butt;stroke-linejoin:round;stroke-miterlimit:4;stroke-opacity:1;stroke-dasharray:none"
           id="path4007"
           inkscape:connector-curvature="0" /><path
           d="m 1058.22,594.416 -9.85,-17.452 c -7.49,-2.878 -15.9,-4.319 -25.23,-4.319 -15.2,0 -27.61,4.149 -37.231,12.442 -9.617,8.289 -14.428,19.002 -14.428,32.134 0,13.592 4.957,24.881 14.862,33.865 7.717,7.027 17.857,10.538 30.407,10.538 11.98,0 21.88,-3.743 29.72,-11.228 7.83,-7.49 11.75,-16.994 11.75,-28.51 l 0,-2.94 -67.042,0 c 0.463,-10.651 3.917,-19.001 10.372,-25.078 6.45,-6.078 15.14,-9.13 26.09,-9.13 11.4,0 21.59,3.227 30.58,9.678 z m -19.18,35.938 c -2.53,13.591 -10.25,20.387 -23.15,20.387 -13.02,0 -21.026,-6.796 -24.018,-20.387 l 47.168,0"
           style="fill:#001a30;fill-opacity:1;fill-rule:nonzero;stroke:#001a30;stroke-width:1.16407955;stroke-linecap:butt;stroke-linejoin:round;stroke-miterlimit:4;stroke-opacity:1;stroke-dasharray:none"
           id="path4009"
           inkscape:connector-curvature="0" /><path
           d="m 1166.37,537.746 -30.23,0 c 3.33,2.764 5.32,5.009 5.96,6.738 0.63,1.725 0.95,5.53 0.95,11.404 l 0,88.284 c -8.33,2.419 -15.15,3.63 -20.45,3.63 -9.59,0 -17.34,-2.822 -23.24,-8.493 -5.9,-5.647 -8.84,-13.104 -8.84,-22.347 0,-9.589 3.08,-17.362 9.28,-23.298 6.19,-5.959 14.19,-8.926 24.01,-8.926 5.1,0 9.88,1.039 14.4,3.114 l -8.81,-13.133 c -3.46,-1.385 -7.49,-2.074 -12.1,-2.074 -13.25,0 -24.07,3.86 -32.48,11.578 -8.41,7.716 -12.61,17.565 -12.61,29.544 0,7.717 1.87,14.999 5.61,21.856 3.75,6.853 8.84,12.235 15.29,16.153 8.3,5.183 18.32,7.717 30.06,7.603 l 43.2,-0.175 c -3.23,-2.533 -5.19,-4.692 -5.88,-6.479 -0.69,-1.786 -1.04,-5.614 -1.04,-11.487 l 0,-85.35 c 0,-5.874 0.32,-9.679 0.95,-11.404 0.64,-1.729 2.63,-3.974 5.97,-6.738"
           style="fill:#001a30;fill-opacity:1;fill-rule:nonzero;stroke:#001a30;stroke-width:1.16407955;stroke-linecap:butt;stroke-linejoin:round;stroke-miterlimit:4;stroke-opacity:1;stroke-dasharray:none"
           id="path4011"
           inkscape:connector-curvature="0" /></g><g
         transform="matrix(0.49539467,0,0,-0.49539467,321.33555,802.07239)"
         style="display:inline"
         inkscape:label="Bird"
         id="g4013" /></g></g></svg>