<svg viewBox="0 0 121 81" version="1.1" xmlns="http://www.w3.org/2000/svg" xmlns:xlink="http://www.w3.org/1999/xlink">
  <g id="Holding-Page" stroke="none" stroke-width="1" fill="none" fill-rule="evenodd">
    <g id="Home---Desktop-01" transform="translate(-81.000000, -50.000000)" fill="#000000">
      <g id="Page-1" transform="translate(81.000000, 50.000000)">
        <polygon id="Fill-1" points="0.00826617167 80.9193258 120.932123 80.9193258 120.932123 75.265658 0.00826617167 75.265658"></polygon>
        <polygon id="Fill-2" points="0.00826617167 2.8268339 120.908703 2.8268339 120.908703 0 0.00826617167 0"></polygon>
        <path d="M1.39822294,61.1012383 C2.03176595,61.2614446 2.9130973,61.3149779 3.62930203,61.3149779 C4.29039896,61.3149779 4.92374516,61.2882112 5.55728817,61.1813414 L5.97039994,53.7551702 C6.08061556,51.8584775 6.19083118,49.3475294 6.19083118,47.5844731 L6.38370852,47.5844731 L9.0830072,58.4566538 C9.74390731,58.5635236 10.7905621,58.6168601 11.3414434,58.6168601 C11.9474325,58.6168601 12.9665334,58.5635236 13.6276303,58.4566538 L16.3544829,47.5844731 L16.5196095,47.5844731 C16.5471634,49.3475294 16.657379,51.8584775 16.7400407,53.7551702 L17.1807064,61.1813414 C17.8142494,61.2882112 18.4202385,61.3149779 19.0813355,61.3149779 C19.7973434,61.3149779 20.7064255,61.2614446 21.3397717,61.1012383 L19.8800051,42.936326 C18.9435659,42.7761197 17.7040338,42.7227833 16.9053642,42.7227833 C16.0789438,42.7227833 15.032289,42.7761197 14.1234038,42.936326 L12.4707599,49.4811659 C12.3329904,50.1221878 11.6996442,52.9805119 11.451659,54.316089 L11.2587817,54.316089 C11.0385472,52.9805119 10.3774503,50.1221878 10.2396808,49.4811659 L8.61459081,42.936326 C7.67815164,42.7761197 6.63149686,42.7227833 5.83282723,42.7227833 C5.00640687,42.7227833 3.76707156,42.7761197 2.85798949,42.936326 L1.39822294,61.1012383 Z M36.0206894,59.2313122 C35.4698081,58.8573663 35.2493768,58.2696808 35.2493768,57.4950225 L35.2493768,52.072217 C35.2493768,48.6797408 32.7429555,47.5043699 30.3465529,47.5043699 C28.5563363,47.5043699 25.8845916,47.9584189 24.0390703,48.6797408 C24.149286,49.7214753 24.479736,50.8968462 25.0857251,51.5914014 C26.5181346,51.1639222 27.9503472,50.7366399 29.1347715,50.7366399 C30.3741068,50.7366399 30.9249881,51.2975587 30.9249881,52.4195931 L30.9249881,52.9269786 C30.2089802,52.8736421 29.4652216,52.8736421 28.9694481,52.8736421 C26.1323799,52.8736421 23.5157429,54.2895192 23.5157429,57.4950225 C23.5157429,59.4182851 24.8654907,61.5552873 27.7023621,61.5552873 C29.4927755,61.5552873 30.7598615,60.8341622 31.7238546,59.952634 C32.3298437,60.7272924 33.2938368,61.3417445 34.6984955,61.3683143 C35.2493768,60.9676018 35.8553659,59.952634 36.0206894,59.2313122 L36.0206894,59.2313122 Z M28.9694481,58.4834204 C28.1981356,58.4834204 27.7023621,57.9490715 27.7023621,57.2279464 C27.7023621,56.2127818 28.1981356,55.5182266 29.4376677,55.5182266 C29.8232256,55.5182266 30.3741068,55.5449932 30.9249881,55.5715631 L30.9249881,57.7087621 C30.2914451,58.2161475 29.6029911,58.4834204 28.9694481,58.4834204 L28.9694481,58.4834204 Z M44.9631126,53.7284036 C45.5139939,53.8352734 45.9822135,53.8888067 46.6984182,53.8888067 C47.9103964,53.8888067 48.8192817,53.2475879 48.8192817,51.8584775 C48.8192817,49.213893 46.5330948,47.4242668 43.4482382,47.4242668 C40.4184895,47.4242668 37.2785251,49.3475294 37.2785251,54.5298286 C37.2785251,58.803833 39.3993886,61.5552873 43.3655765,61.5552873 C45.3762244,61.5552873 47.4970878,60.7540591 48.7090661,59.4983882 C48.5161887,58.6703934 47.7726269,57.548359 47.0839761,57.1744131 C46.2026447,57.7620985 45.128436,58.2964475 44.0542273,58.2964475 C42.4842452,58.2964475 41.6578248,57.361386 41.6578248,54.5298286 C41.6578248,51.7250378 42.0986873,50.5229003 43.3655765,50.5229003 C44.7977892,50.5229003 44.9906665,51.6715045 44.9631126,53.7284036 L44.9631126,53.7284036 Z M62.8757098,52.3392931 C62.8757098,49.561269 61.5261589,47.5844731 59.0195407,47.5844731 C57.5597742,47.5844731 56.3753498,48.225495 55.3286951,49.0536867 L55.3286951,44.0050239 C55.3286951,42.1350978 54.695152,41.4938791 52.9875972,41.4938791 L51.3349533,41.4938791 L51.1420759,41.680852 L51.1420759,61.1545748 C51.7756189,61.2614446 52.5193776,61.3149779 53.2078316,61.3149779 C53.9791441,61.3149779 54.7227059,61.2614446 55.3286951,61.1545748 L55.3286951,52.2326201 C56.0448998,51.5914014 56.8160155,51.3243253 57.3944507,51.3243253 C58.3035328,51.3243253 58.5513211,51.8852441 58.5513211,53.0873817 L58.5513211,58.7772632 C58.5513211,60.4602163 59.1297563,61.3683143 60.8650619,61.3683143 C61.9392706,61.3683143 62.9308176,60.9943685 63.5643606,60.4602163 C63.0410332,59.7922309 62.8757098,58.8573663 62.8757098,57.8156318 L62.8757098,52.3392931 Z M70.918498,50.8968462 C70.918498,48.9468169 69.7340737,47.7181095 67.9161064,47.7181095 L67.3103141,47.7181095 C66.704325,47.7181095 65.7403319,47.771446 64.8863576,47.8515492 C64.7485881,48.3323648 64.721231,48.8934804 64.721231,49.3475294 C64.721231,49.8551117 64.7485881,50.3091607 64.8863576,50.7634065 L65.2994694,50.7634065 C66.2636593,50.7634065 66.5941093,51.4311951 66.5941093,52.3127233 L66.5941093,61.1545748 C67.2276524,61.2614446 68.026322,61.3149779 68.7425267,61.3149779 C69.4862854,61.3149779 70.3125089,61.2614446 70.918498,61.1545748 L70.918498,50.8968462 Z M65.7678858,44.0050239 C65.7678858,44.4858396 65.8779046,45.073525 66.0983359,45.5543407 C66.5114476,45.7946501 67.3929758,45.9550532 68.1365376,45.9550532 C68.8802963,45.9550532 69.7616276,45.7680803 70.1747394,45.5543407 C70.3951706,45.073525 70.5053862,44.4858396 70.5053862,44.0050239 C70.5053862,43.5240115 70.3951706,42.936326 70.1747394,42.4555104 C69.7616276,42.215201 68.8802963,42.028228 68.1365376,42.028228 C67.3929758,42.028228 66.5665554,42.215201 66.0983359,42.4555104 C65.8779046,42.936326 65.7678858,43.4974416 65.7678858,44.0050239 L65.7678858,44.0050239 Z M86.0583851,52.3392931 C86.0583851,49.561269 84.7086373,47.5844731 82.202216,47.5844731 C80.6046799,47.5844731 79.3651478,48.305795 78.2909391,49.2406596 C77.9329351,48.225495 77.1891765,47.6378096 76.0323061,47.6378096 L74.4074129,47.6378096 L74.2145356,47.8249793 L74.2145356,61.1545748 C74.8205247,61.2614446 75.6467482,61.3149779 76.3629529,61.3149779 C77.1067116,61.3149779 77.9053812,61.2614446 78.5113703,61.1545748 L78.5113703,52.2326201 C79.2275751,51.5914014 79.9986908,51.3243253 80.5495721,51.3243253 C81.4860112,51.3243253 81.7339964,51.8852441 81.7339964,53.0873817 L81.7339964,58.7772632 C81.7339964,60.4602163 82.3124316,61.3683143 84.0475404,61.3683143 C85.1217491,61.3683143 86.085939,60.9943685 86.7192852,60.4602163 C86.2235117,59.7922309 86.0583851,58.8573663 86.0583851,57.8156318 L86.0583851,52.3392931 Z M99.8577746,55.8388359 C100.133117,54.9573078 100.215779,54.2627525 100.215779,53.0873817 C100.215779,49.8551117 98.122469,47.4242668 94.4867311,47.4242668 C90.1072347,47.4242668 88.3168212,50.5496669 88.3168212,54.5833619 C88.3168212,58.1094746 89.6114612,61.5552873 94.4591772,61.5552873 C96.3871634,61.5552873 98.4804729,60.9943685 99.8577746,60.0327372 C99.747559,59.2045455 99.3620011,58.1895777 98.7284581,57.5751256 C97.5991416,58.0026048 96.3871634,58.3765506 95.1476313,58.3765506 C93.3298607,58.3765506 92.8065333,57.2812829 92.6687638,55.8388359 L99.8577746,55.8388359 Z M94.4591772,50.3892639 C95.7536204,50.3892639 96.2769478,51.4311951 96.2769478,52.6599025 L96.2769478,52.9537452 L92.6412099,52.9537452 C92.7514255,51.2174555 93.247199,50.3892639 94.4591772,50.3892639 L94.4591772,50.3892639 Z M101.592883,60.2464768 C102.859969,60.941032 104.925725,61.5552873 107.074142,61.5552873 C110.434538,61.5552873 112.637866,59.8725309 112.637866,57.2011798 C112.637866,54.9305411 111.067884,53.6215338 108.974575,52.9004087 L107.26702,52.3127233 C106.523261,52.0454504 106.220365,51.7516077 106.220365,51.2975587 C106.220365,50.816743 106.605923,50.4427972 107.349485,50.4427972 C108.671679,50.4427972 110.048783,50.9503795 111.205654,51.457765 C111.894305,50.9503795 112.445186,49.5345023 112.390078,48.5461044 C111.1781,47.9584189 108.974575,47.4242668 107.321931,47.4242668 C104.071948,47.4242668 101.978638,49.1337898 101.978638,51.8319076 C101.978638,53.9956765 103.493512,55.1442807 105.421499,55.8388359 L106.936373,56.3997547 C107.845455,56.6935975 108.203459,57.09431 108.203459,57.6018923 C108.203459,58.1360444 107.652578,58.5367569 106.605923,58.5367569 C105.50416,58.5367569 103.989286,58.0291746 102.777308,57.4149193 C102.143765,58.0559413 101.620437,59.3381819 101.592883,60.2464768 L101.592883,60.2464768 Z M114.841392,59.3381819 C114.841392,59.6587913 114.924053,60.4602163 115.172038,60.941032 C115.72292,61.2882112 116.604251,61.4484175 117.320456,61.4484175 C118.036464,61.4484175 118.945546,61.2882112 119.496427,60.941032 C119.744216,60.4602163 119.826877,59.6587913 119.826877,59.3381819 C119.826877,59.0175726 119.744216,58.2161475 119.496427,57.7087621 C118.945546,57.4149193 118.036464,57.2279464 117.320456,57.2279464 C116.604251,57.2279464 115.72292,57.4149193 115.172038,57.7087621 C114.924053,58.2161475 114.841392,59.0175726 114.841392,59.3381819 L114.841392,59.3381819 Z" id="Fill-3"></path>
        <path d="M0.9176041,32.6745627 C2.76312533,33.9300368 5.24199277,34.6781253 7.52817967,34.6781253 C12.0728028,34.6781253 14.276328,32.38072 14.276328,29.3086564 C14.276328,26.9313448 12.5134684,25.3017281 10.1448166,24.3400968 L6.94974447,23.0045196 C5.59999672,22.443404 4.66355756,21.7756154 4.66355756,20.6002445 C4.66355756,19.1845642 5.93064359,18.0892965 7.96884535,18.0892965 C9.37350409,18.0892965 11.2465792,18.6502152 12.6787919,19.3447705 C13.284781,18.8106183 13.7254467,17.9290902 13.7530006,17.1276652 C12.3205911,16.4331099 10.1997276,15.7385547 7.91373754,15.7385547 C4.22289189,15.7385547 1.68891664,18.0091933 1.68891664,20.9208539 C1.68891664,23.1914925 3.1486832,24.580603 5.4622272,25.5422343 L8.71240717,26.9045781 C10.3099433,27.5723667 11.2190253,28.533998 11.2190253,29.789472 C11.1914714,31.2586856 9.92438539,32.3006169 7.69330629,32.3006169 C5.79287406,32.3006169 3.75467231,31.4991919 2.15713622,30.4840273 C1.55114711,30.9648429 1.00026582,31.8463711 0.9176041,32.6745627 L0.9176041,32.6745627 Z M19.9961251,23.4318019 C19.9961251,21.9625883 19.1423477,21.0544903 17.7652428,21.0544903 L17.3794882,21.0544903 C16.9939303,21.0544903 16.3328334,21.0810602 15.6443794,21.1613601 C15.5617177,21.535306 15.5066098,21.8557185 15.5066098,22.1763279 C15.5066098,22.5237039 15.5617177,22.8175467 15.6443794,23.1647259 L15.9472755,23.1647259 C16.8561608,23.1647259 17.1592537,23.592205 17.1592537,24.5538363 L17.1592537,34.3307493 C17.5448116,34.4108524 18.068139,34.4376191 18.5914664,34.4376191 C19.0872399,34.4376191 19.6105673,34.4108524 19.9961251,34.3307493 L19.9961251,23.4318019 Z M16.3052795,17.4748444 C16.3052795,17.8487902 16.3879412,18.3296059 16.5532646,18.6502152 C16.8561608,18.8639548 17.5172577,18.9975913 18.068139,18.9975913 C18.5639125,18.9975913 19.3076711,18.8639548 19.5830134,18.6502152 C19.7483368,18.3296059 19.8309985,17.8487902 19.8309985,17.4748444 C19.8309985,17.1008985 19.7483368,16.5933162 19.5830134,16.2727068 C19.2801172,16.0857339 18.5639125,15.9522943 18.068139,15.9522943 C17.5172577,15.9522943 16.8837147,16.0857339 16.5532646,16.2727068 C16.3879412,16.5933162 16.3052795,17.0741319 16.3052795,17.4748444 L16.3052795,17.4748444 Z M30.9218391,25.9695166 L30.9218391,34.3307493 C31.307397,34.4108524 31.8307244,34.4376191 32.3540518,34.4376191 C32.8498253,34.4376191 33.3731527,34.4108524 33.7589073,34.3307493 L33.7589073,25.034652 C34.6677926,24.046254 35.7971091,23.4052321 36.7335483,23.4052321 C37.8353109,23.4052321 38.3861921,24.0730207 38.3861921,25.9429468 L38.3861921,32.7546659 C38.3861921,33.9032701 38.7993039,34.5177222 39.9010665,34.5177222 C40.5897173,34.5177222 41.2783682,34.2506461 41.6914799,33.9300368 C41.3332792,33.2890148 41.2508143,32.4340565 41.2508143,31.4991919 L41.2508143,25.0879885 C41.2508143,22.7640134 40.1214978,20.8940872 37.6975413,20.8940872 C36.1275591,20.8940872 34.5851309,21.7490456 33.3182417,22.8708831 C32.7949143,21.6955123 31.7480627,20.8940872 30.1780805,20.8940872 C28.7734217,20.8940872 27.3963169,21.6421758 26.2670004,22.7106769 C26.2118926,21.6421758 25.7712269,21.0277237 24.6970182,21.0277237 L23.6228095,21.0277237 L23.4574861,21.2146966 L23.4574861,34.3307493 C23.8705979,34.4108524 24.3663714,34.4376191 24.8896988,34.4376191 C25.3854722,34.4376191 25.9089965,34.4108524 26.2945543,34.3307493 L26.2945543,25.034652 C27.1758857,24.0730207 28.3327561,23.4052321 29.2691952,23.4052321 C30.3709578,23.4052321 30.9218391,24.0997873 30.9218391,25.9695166 L30.9218391,25.9695166 Z M55.8671771,27.5723667 C55.8671771,23.5654384 54.269641,20.7872174 51.1296767,20.7872174 C49.5872484,20.7872174 48.2928053,21.4552028 47.3561693,22.3900675 C47.1634888,21.535306 46.6126075,21.0277237 45.6761683,21.0277237 L44.7946401,21.0277237 L44.6295135,21.18793 L44.6295135,39.913761 L44.7946401,40.0739673 L45.8964027,40.0739673 C47.0808271,40.0739673 47.438831,39.5398151 47.438831,38.3109109 L47.438831,33.6897274 C48.3752702,34.1971128 49.4221218,34.5712555 50.5787954,34.5712555 C53.2229862,34.5712555 55.8671771,32.3539534 55.8671771,27.5723667 L55.8671771,27.5723667 Z M50.4687766,23.1113894 C51.7907736,23.1113894 52.9751979,24.3936301 52.9751979,27.5723667 C52.9751979,30.8314033 51.7356658,32.3539534 50.1932375,32.3539534 C49.2292444,32.3539534 48.2652514,31.926671 47.438831,31.3923221 L47.438831,24.8476791 C48.2928053,23.6455415 49.4770328,23.1113894 50.4687766,23.1113894 L50.4687766,23.1113894 Z M62.2758219,32.2738502 C61.5320633,32.2738502 61.2016132,31.8731377 61.2016132,31.0717127 L61.2016132,16.4598766 C61.2016132,15.2309724 60.8434124,14.6968202 59.6591849,14.6968202 L58.5849763,14.6968202 L58.3920989,14.8570265 L58.3920989,31.6861648 C58.3920989,33.5293243 59.3285381,34.4376191 61.1189515,34.4376191 C61.8625133,34.4376191 62.8267032,34.3575159 63.4600494,34.2506461 C63.5151572,34.0636732 63.5427111,33.8499336 63.5427111,33.6629607 C63.5427111,33.1553784 63.4324955,32.6477961 63.2949228,32.2738502 L62.2758219,32.2738502 Z M75.84553,28.6141011 C75.9832995,27.8662094 76.0384073,27.3586271 76.0384073,26.5038656 C76.0384073,23.3249321 74.1379751,20.7872174 70.5847021,20.7872174 C66.756087,20.7872174 64.8281008,23.779178 64.8281008,27.7593396 C64.8281008,31.3655554 66.1502947,34.6781253 70.5020404,34.6781253 C72.4302234,34.6781253 74.3582095,34.0904399 75.6804033,33.182145 C75.5701877,32.6212263 75.2395408,31.8463711 74.7713213,31.4190887 C73.6146477,32.0067742 72.3200077,32.4340565 70.9429029,32.4340565 C68.6016082,32.4340565 67.8578495,30.8314033 67.7478307,28.6141011 L75.84553,28.6141011 Z M70.5571482,22.8441165 C72.540439,22.8441165 73.3115547,24.3936301 73.3115547,26.2633594 L73.3115547,26.6107354 L67.7478307,26.6107354 C67.8854035,24.2599936 68.7944855,22.8441165 70.5571482,22.8441165 L70.5571482,22.8441165 Z" id="Fill-8"></path>
      </g>
    </g>
  </g>
</svg>
