<?xml version="1.0" encoding="UTF-8" standalone="no"?>
<!-- Created with Inkscape (http://www.inkscape.org/) -->

<svg
   xmlns:dc="http://purl.org/dc/elements/1.1/"
   xmlns:cc="http://creativecommons.org/ns#"
   xmlns:rdf="http://www.w3.org/1999/02/22-rdf-syntax-ns#"
   xmlns:svg="http://www.w3.org/2000/svg"
   xmlns="http://www.w3.org/2000/svg"
   xmlns:sodipodi="http://sodipodi.sourceforge.net/DTD/sodipodi-0.dtd"
   xmlns:inkscape="http://www.inkscape.org/namespaces/inkscape"
   width="1920"
   height="1080"
   viewBox="0 0 508 285.74999"
   version="1.1"
   id="svg8"
   inkscape:version="0.92.2 5c3e80d, 2017-08-06"
   sodipodi:docname="WHIRL.svg">
  <defs
     id="defs2" />
  <sodipodi:namedview
     id="base"
     pagecolor="#ffffff"
     bordercolor="#666666"
     borderopacity="1.0"
     inkscape:pageopacity="0.0"
     inkscape:pageshadow="2"
     inkscape:zoom="0.73854167"
     inkscape:cx="958.64598"
     inkscape:cy="540"
     inkscape:document-units="mm"
     inkscape:current-layer="layer1"
     showgrid="false"
     inkscape:window-width="1920"
     inkscape:window-height="1058"
     inkscape:window-x="1200"
     inkscape:window-y="0"
     inkscape:window-maximized="1"
     fit-margin-top="0"
     fit-margin-left="0"
     fit-margin-right="0"
     fit-margin-bottom="0"
     units="px" />
  <metadata
     id="metadata5">
    <rdf:RDF>
      <cc:Work
         rdf:about="">
        <dc:format>image/svg+xml</dc:format>
        <dc:type
           rdf:resource="http://purl.org/dc/dcmitype/StillImage" />
        <dc:title></dc:title>
      </cc:Work>
    </rdf:RDF>
  </metadata>
  <g
     inkscape:label="Layer 1"
     inkscape:groupmode="layer"
     id="layer1"
     transform="translate(-141.35211,224.55951)">
    <g
       id="g4552"
       transform="matrix(5.8277731,0,0,12.335388,-666.50957,-702.56527)"
       style="fill:#f3a900;fill-opacity:1;stroke-width:0.11794303">
      <path
         d="m 146.02571,54.484055 q 0,-1.354666 0.0226,-2.8448 0.0451,-1.512711 0.0903,-2.889955 0.0677,-1.399822 0.11289,-2.528711 0.0677,-1.128889 0.0903,-1.715911 0.0226,-0.293512 0,-0.632178 -0.0226,-0.361245 -0.13547,-0.677334 -0.0903,-0.338666 -0.29351,-0.632177 -0.2032,-0.293511 -0.54187,-0.496711 -0.58702,-0.338667 -1.26435,-0.519289 -0.67734,-0.2032 -1.51271,-0.383823 -0.72249,-0.158044 -0.97085,0.04516 -0.24835,0.2032 -0.27093,0.925689 0,1.286933 0.0226,2.799644 0.0226,1.490134 0.0903,3.070578 0.0677,1.557867 0.15804,3.138311 0.0903,1.580445 0.2032,3.025422 0.11289,1.377245 0.27093,2.596445 0.13547,1.196622 0.31609,2.122311 0.0677,0.632178 0.29351,0.948267 0.24836,0.293511 0.79023,0.474133 0.58702,0.180622 1.2192,0.338667 0.65475,0.180622 1.35466,0.293511 0.51929,0.06773 0.8128,-0.02258 0.31609,-0.06773 0.58703,-0.519289 0.24835,-0.564444 0.65475,-1.4224 0.4064,-0.880533 0.88053,-1.896533 0.49672,-1.016 1.03858,-2.077156 0.54187,-1.083733 1.06116,-2.077155 0,0.790222 0.0677,1.6256 0.0903,0.835377 0.18062,1.648177 0.0903,0.790223 0.18063,1.467556 0.11288,0.677333 0.18062,1.151467 0.0903,0.474133 0.36124,0.880533 0.27094,0.383822 0.90311,0.6096 0.31609,0.06773 0.56445,0.135467 0.27093,0.09031 0.51929,0.158044 0.27093,0.06773 0.56444,0.135467 0.29351,0.09031 0.69991,0.158044 0.72249,0.112889 1.10631,0 0.38383,-0.112889 0.6096,-0.541866 0.4064,-0.925689 0.97085,-2.167467 0.56444,-1.241778 1.19662,-2.6416 0.65476,-1.4224 1.35467,-2.912533 0.72249,-1.512712 1.4224,-2.957689 0.69991,-1.444978 1.37724,-2.777067 0.67733,-1.332089 1.24178,-2.370667 0.27093,-0.587022 0.29351,-1.151466 0.0226,-0.564445 -0.49671,-1.061156 -0.47413,-0.383822 -0.99342,-0.677333 -0.49671,-0.316089 -1.016,-0.564445 -0.72249,-0.293511 -1.06116,-0.2032 -0.33867,0.06773 -0.67733,0.767645 -0.27094,0.519289 -0.67734,1.354666 -0.38382,0.8128 -0.88053,1.851378 -0.47413,1.038578 -1.03858,2.2352 -0.54186,1.174045 -1.10631,2.415822 -0.56444,1.241778 -1.12889,2.483556 -0.54186,1.2192 -1.016,2.325511 0.0903,-1.332089 0.18063,-2.731911 0.11288,-1.399822 0.2032,-2.6416 0.0903,-1.241778 0.15804,-2.167467 0.0677,-0.925689 0.0677,-1.309511 0,-0.338666 -0.0226,-0.587022 0,-0.248356 -0.0903,-0.428978 -0.0677,-0.180622 -0.24835,-0.316089 -0.15805,-0.135466 -0.49671,-0.270933 -0.6096,-0.248356 -1.06116,-0.4064 -0.42898,-0.158044 -1.08373,-0.293511 -0.65476,-0.158045 -0.99342,-0.02258 -0.31609,0.135467 -0.58703,0.632178 -0.36124,0.587022 -0.94826,1.8288 -0.56445,1.241778 -1.24178,2.754489 -0.65476,1.512711 -1.35467,3.138311 -0.67733,1.6256 -1.26435,3.002844 z"
         style="font-style:normal;font-variant:normal;font-weight:normal;font-stretch:normal;font-size:22.57777786px;line-height:125%;font-family:'Komika Axis';-inkscape-font-specification:'Komika Axis, Normal';font-variant-ligatures:normal;font-variant-caps:normal;font-variant-numeric:normal;font-feature-settings:normal;text-align:start;letter-spacing:0px;word-spacing:0px;writing-mode:lr-tb;text-anchor:start;fill:#f3a900;fill-opacity:1;stroke:none;stroke-width:0.03120575px;stroke-linecap:butt;stroke-linejoin:miter;stroke-opacity:1"
         id="path4508"
         inkscape:connector-curvature="0" />
      <path
         d="m 179.52972,43.714455 q 0.18062,-0.587022 0.0452,-0.903111 -0.11288,-0.316089 -0.69991,-0.745066 -0.63217,-0.4064 -1.33209,-0.722489 -0.69991,-0.338667 -1.35466,-0.519289 -0.69991,-0.2032 -1.08374,-0.09031 -0.36124,0.09031 -0.56444,0.8128 -0.51929,1.919111 -1.06116,4.289777 -0.51928,2.348089 -1.08373,4.741334 -0.85795,0.06773 -1.78364,0.135466 -0.90311,0.06773 -1.85138,0.180623 0.45155,-1.986845 0.83538,-3.725334 0.4064,-1.738489 0.76764,-3.025422 0.0677,-0.293511 0.0903,-0.519289 0.0226,-0.225778 -0.0677,-0.4064 -0.0677,-0.180622 -0.27093,-0.361244 -0.18063,-0.180622 -0.51929,-0.383822 -0.6096,-0.4064 -1.44498,-0.745067 -0.8128,-0.361245 -1.53529,-0.564445 -0.65476,-0.248355 -0.99342,-0.112888 -0.33867,0.135466 -0.51929,0.857955 -0.27093,1.896533 -0.54187,4.154311 -0.24835,2.2352 -0.51929,4.492978 -0.27093,2.257778 -0.56444,4.334933 -0.29351,2.077156 -0.63218,3.635023 -0.13547,0.587022 0.0903,0.925688 0.22578,0.316089 0.74507,0.564445 0.42898,0.248355 1.016,0.4064 0.6096,0.158044 1.17404,0.316089 0.58703,0.135466 0.76765,0.02258 0.2032,-0.112889 0.29351,-0.496712 0.18062,-1.083733 0.4064,-2.4384 0.22578,-1.377244 0.58702,-2.935111 0.94827,-0.158044 1.85138,-0.270933 0.92569,-0.135467 1.87395,-0.270933 -0.24835,1.309511 -0.42897,2.370666 -0.18063,1.061156 -0.27094,1.873956 -0.2032,0.8128 0.31609,1.2192 0.51929,0.383822 1.44498,0.654755 0.45156,0.112889 0.83538,0.2032 0.4064,0.112889 0.69991,0.112889 0.29351,0.02258 0.45155,-0.09031 0.18063,-0.09031 0.18063,-0.4064 0.45155,-1.873955 1.016,-4.064 0.58702,-2.190044 1.19662,-4.402666 0.63218,-2.212623 1.26435,-4.312356 0.63218,-2.099733 1.17405,-3.793067 z"
         style="font-style:normal;font-variant:normal;font-weight:normal;font-stretch:normal;font-size:22.57777786px;line-height:125%;font-family:'Komika Axis';-inkscape-font-specification:'Komika Axis, Normal';font-variant-ligatures:normal;font-variant-caps:normal;font-variant-numeric:normal;font-feature-settings:normal;text-align:start;letter-spacing:0px;word-spacing:0px;writing-mode:lr-tb;text-anchor:start;fill:#f3a900;fill-opacity:1;stroke:none;stroke-width:0.03120575px;stroke-linecap:butt;stroke-linejoin:miter;stroke-opacity:1"
         id="path4510"
         inkscape:connector-curvature="0" />
      <path
         d="m 185.16817,42.472678 q -0.6096,-0.4064 -1.4224,-0.767645 -0.8128,-0.361244 -1.51271,-0.541867 -0.69992,-0.2032 -1.06116,-0.04515 -0.33867,0.135467 -0.54187,0.790222 -0.24835,1.061156 -0.54186,2.483556 -0.29351,1.399822 -0.58703,2.980266 -0.27093,1.580445 -0.54186,3.228623 -0.27094,1.648177 -0.47414,3.138311 -0.22577,1.490133 -0.36124,2.754489 -0.15804,1.241777 -0.2032,2.032 -0.0677,0.587022 0.11289,0.925688 0.15804,0.316089 0.67733,0.564445 0.47414,0.248355 0.99342,0.4064 0.54187,0.158044 1.12889,0.316089 0.58703,0.135466 0.76765,0.02258 0.2032,-0.112889 0.31609,-0.496712 0.2032,-1.016 0.47413,-2.302933 0.29351,-1.309511 0.63218,-2.754489 0.33866,-1.467555 0.69991,-2.980266 0.36124,-1.535289 0.72249,-2.980267 0.38382,-1.467556 0.74506,-2.777067 0.38383,-1.309511 0.69992,-2.325511 0.15804,-0.6096 0.0226,-0.925689 -0.11289,-0.316089 -0.74506,-0.745066 z"
         style="font-style:normal;font-variant:normal;font-weight:normal;font-stretch:normal;font-size:22.57777786px;line-height:125%;font-family:'Komika Axis';-inkscape-font-specification:'Komika Axis, Normal';font-variant-ligatures:normal;font-variant-caps:normal;font-variant-numeric:normal;font-feature-settings:normal;text-align:start;letter-spacing:0px;word-spacing:0px;writing-mode:lr-tb;text-anchor:start;fill:#f3a900;fill-opacity:1;stroke:none;stroke-width:0.03120575px;stroke-linecap:butt;stroke-linejoin:miter;stroke-opacity:1"
         id="path4512"
         inkscape:connector-curvature="0" />
      <path
         d="m 190.46265,55.116233 q 0.58703,0.722489 1.30951,1.444978 0.72249,0.699911 1.44498,1.354667 0.72249,0.654755 1.39982,1.196622 0.67734,0.541866 1.19663,0.903111 0.79022,0.474133 1.37724,0.519289 0.6096,0.06773 1.10631,-0.06773 0.4064,-0.06773 0.67734,-0.112888 0.29351,-0.06773 0.69991,-0.383823 0.33866,-0.248355 0.38382,-0.474133 0.0452,-0.225778 -0.4064,-0.6096 -0.56445,-0.451556 -1.2192,-1.061156 -0.63218,-0.6096 -1.28693,-1.264355 -0.65476,-0.654756 -1.28694,-1.309511 -0.6096,-0.654756 -1.12889,-1.241778 2.52871,-1.128889 4.33494,-2.4384 1.8288,-1.309511 2.61902,-2.867378 0.51929,-0.970844 0.22578,-2.483555 -0.36125,-1.4224 -1.016,-2.393245 -0.63218,-0.993422 -1.4224,-1.851378 -0.99343,-0.970844 -2.32551,-1.174044 -1.30952,-0.225778 -2.79965,0.04516 -1.46755,0.248355 -3.00284,0.857955 -1.51271,0.6096 -2.91254,1.241778 -0.29351,0.158044 -0.56444,0.8128 -0.27093,0.632178 -0.49671,1.6256 -0.22578,0.970844 -0.42898,2.212622 -0.2032,1.2192 -0.38382,2.528711 -0.15805,1.309511 -0.29351,2.619022 -0.15805,1.309512 -0.27094,2.460978 -0.11289,1.128889 -0.18062,2.032 -0.0903,0.903111 -0.13547,1.377245 -0.0452,0.587022 0.11289,0.948266 0.15805,0.338667 0.58703,0.587023 0.42897,0.225777 0.90311,0.316088 0.47413,0.09031 1.08373,0.248356 0.51929,0.112889 0.69991,0 0.2032,-0.112889 0.31609,-0.474133 0.24836,-1.2192 0.49671,-2.483556 0.27093,-1.264355 0.58702,-2.6416 z m 2.41583,-9.166578 q 0.88053,-0.428977 1.67075,-0.587022 0.79022,-0.158044 1.44498,-0.158044 1.33209,0 1.60302,0.632177 0.13547,0.383823 -0.22578,1.083734 -0.36124,0.699911 -1.17404,1.490133 -0.8128,0.767645 -2.032,1.535289 -1.19662,0.745067 -2.75449,1.264356 0.42898,-1.490134 0.76764,-2.799645 0.33867,-1.309511 0.69992,-2.460978 z"
         style="font-style:normal;font-variant:normal;font-weight:normal;font-stretch:normal;font-size:22.57777786px;line-height:125%;font-family:'Komika Axis';-inkscape-font-specification:'Komika Axis, Normal';font-variant-ligatures:normal;font-variant-caps:normal;font-variant-numeric:normal;font-feature-settings:normal;text-align:start;letter-spacing:0px;word-spacing:0px;writing-mode:lr-tb;text-anchor:start;fill:#f3a900;fill-opacity:1;stroke:none;stroke-width:0.03120575px;stroke-linecap:butt;stroke-linejoin:miter;stroke-opacity:1"
         id="path4514"
         inkscape:connector-curvature="0" />
      <path
         d="m 211.42753,59.473744 q 0.69991,-0.135466 0.76765,-0.293511 0.0903,-0.158044 -0.0677,-0.632178 -0.0903,-0.383822 -0.27093,-0.790222 -0.15804,-0.428978 -0.42898,-0.835378 -0.27093,-0.428977 -0.6096,-0.541866 -0.31609,-0.135467 -0.94826,-0.09031 -1.06116,0.06773 -1.96427,0.158044 -0.90311,0.09031 -1.94169,0.270933 0.36124,-1.557866 0.76764,-3.2512 0.42898,-1.715911 0.88054,-3.431822 0.47413,-1.715911 0.92569,-3.341511 0.47413,-1.6256 0.92569,-2.980267 0.2032,-0.587022 0.0452,-0.903111 -0.13547,-0.316089 -0.72249,-0.745066 -0.6096,-0.4064 -1.4224,-0.722489 -0.8128,-0.338667 -1.51271,-0.519289 -0.69991,-0.2032 -1.06115,-0.06773 -0.33867,0.112889 -0.56445,0.767645 -0.31609,1.151467 -0.65475,2.528711 -0.31609,1.377244 -0.63218,2.867378 -0.31609,1.490133 -0.58702,3.002844 -0.27094,1.490134 -0.49672,2.889956 -0.22577,1.399822 -0.38382,2.619022 -0.15804,1.196622 -0.22578,2.077156 -0.0903,0.564444 0.11289,0.970844 0.2032,0.383822 0.58703,0.699911 0.51928,0.4064 0.83537,0.677333 0.31609,0.248356 0.69991,0.496712 0.15805,0.112888 0.31609,0.2032 0.18063,0.09031 0.42898,0.135466 0.24836,0.06773 0.58702,0.04516 0.33867,-0.02258 0.83538,-0.158045 1.35467,-0.270933 2.8448,-0.541866 1.51271,-0.293511 2.93511,-0.564445 z"
         style="font-style:normal;font-variant:normal;font-weight:normal;font-stretch:normal;font-size:22.57777786px;line-height:125%;font-family:'Komika Axis';-inkscape-font-specification:'Komika Axis, Normal';font-variant-ligatures:normal;font-variant-caps:normal;font-variant-numeric:normal;font-feature-settings:normal;text-align:start;letter-spacing:0px;word-spacing:0px;writing-mode:lr-tb;text-anchor:start;fill:#f3a900;fill-opacity:1;stroke:none;stroke-width:0.03120575px;stroke-linecap:butt;stroke-linejoin:miter;stroke-opacity:1"
         id="path4516"
         inkscape:connector-curvature="0" />
      <path
         d="m 222.24793,40.892233 q -0.58702,-0.4064 -1.39982,-0.745067 -0.79022,-0.338666 -1.46755,-0.519288 -0.72249,-0.248356 -1.08374,-0.09031 -0.33866,0.158045 -0.51929,0.857956 -0.38382,1.444978 -0.8128,3.273778 -0.42897,1.8288 -0.83537,3.702755 -0.4064,1.873956 -0.74507,3.6576 -0.31609,1.761067 -0.49671,3.070578 -0.11289,0.654756 0.0451,0.993422 0.18063,0.316089 0.69991,0.587023 0.49672,0.248355 1.016,0.428977 0.54187,0.158045 1.17405,0.270934 0.51929,0.135466 0.74507,0.02258 0.24835,-0.112888 0.36124,-0.587022 0.33867,-1.354666 0.76764,-2.912533 0.45156,-1.580445 0.97085,-3.273778 0.54187,-1.693333 1.10631,-3.431822 0.58702,-1.738489 1.17404,-3.431822 0.2032,-0.6096 0.0452,-1.016 -0.13547,-0.428978 -0.74507,-0.857956 z m -8.46666,18.062222 q -0.0452,1.083734 0.69991,1.670756 0.74506,0.587022 1.80622,0.564444 0.49671,0 0.88053,-0.180622 0.4064,-0.158044 0.67734,-0.4064 0.29351,-0.225778 0.47413,-0.496711 0.2032,-0.293511 0.27093,-0.496711 0.0903,-0.270933 0.0677,-0.632178 0,-0.361244 -0.18063,-0.722489 -0.18062,-0.361244 -0.56444,-0.654755 -0.38382,-0.316089 -0.99342,-0.474134 -0.72249,-0.2032 -1.30951,-0.112889 -0.56445,0.06773 -0.97085,0.361245 -0.4064,0.270933 -0.6096,0.699911 -0.22578,0.4064 -0.24835,0.880533 z"
         style="font-style:normal;font-variant:normal;font-weight:normal;font-stretch:normal;font-size:22.57777786px;line-height:125%;font-family:'Komika Axis';-inkscape-font-specification:'Komika Axis, Normal';font-variant-ligatures:normal;font-variant-caps:normal;font-variant-numeric:normal;font-feature-settings:normal;text-align:start;letter-spacing:0px;word-spacing:0px;writing-mode:lr-tb;text-anchor:start;fill:#f3a900;fill-opacity:1;stroke:none;stroke-width:0.03120575px;stroke-linecap:butt;stroke-linejoin:miter;stroke-opacity:1"
         id="path4518"
         inkscape:connector-curvature="0" />
    </g>
  </g>
</svg>
