<?xml version="1.0" encoding="UTF-8" standalone="no"?>
<!DOCTYPE svg PUBLIC "-//W3C//DTD SVG 1.1//EN"
 "http://www.w3.org/Graphics/SVG/1.1/DTD/svg11.dtd">
<!-- Generated by graphviz version 2.40.1 (20161225.0304)
 -->
<!-- Title: G Pages: 1 -->
<svg width="565pt" height="575pt"
 viewBox="0.00 0.00 565.00 575.48" xmlns="http://www.w3.org/2000/svg" xmlns:xlink="http://www.w3.org/1999/xlink">
<g id="graph0" class="graph" transform="scale(1 1) rotate(0) translate(4 571.4802)">
<title>G</title>
<polygon fill="#ffffff" stroke="transparent" points="-4,4 -4,-571.4802 561,-571.4802 561,4 -4,4"/>
<!-- Start -->
<g id="node1" class="node">
<title>Start</title>
<ellipse fill="#e6e6e6" stroke="#000000" cx="132" cy="-549.4802" rx="34.394" ry="18"/>
<text text-anchor="middle" x="132" y="-545.7802" font-family="Times,serif" font-size="14.00" fill="#000000">Start</text>
</g>
<!-- ReadRedis -->
<g id="node5" class="node">
<title>ReadRedis</title>
<ellipse fill="#bbee77" stroke="#000000" cx="132" cy="-476.4802" rx="59.5901" ry="18"/>
<text text-anchor="middle" x="132" y="-472.7802" font-family="Times,serif" font-size="14.00" fill="#000000">ReadRedis</text>
</g>
<!-- Start&#45;&gt;ReadRedis -->
<g id="edge1" class="edge">
<title>Start&#45;&gt;ReadRedis</title>
<path fill="none" stroke="#000000" d="M132,-531.4353C132,-523.3631 132,-513.6566 132,-504.662"/>
<polygon fill="#000000" stroke="#000000" points="135.5001,-504.5706 132,-494.5706 128.5001,-504.5706 135.5001,-504.5706"/>
</g>
<!-- Done -->
<g id="node2" class="node">
<title>Done</title>
<ellipse fill="#bbee77" stroke="#000000" cx="176" cy="-18" rx="34.394" ry="18"/>
<text text-anchor="middle" x="176" y="-14.3" font-family="Times,serif" font-size="14.00" fill="#000000">Done</text>
</g>
<!-- DB -->
<g id="node3" class="node">
<title>DB</title>
<ellipse fill="#ddddff" stroke="#000000" cx="424" cy="-18" rx="27" ry="18"/>
<text text-anchor="middle" x="424" y="-14.3" font-family="Times,serif" font-size="14.00" fill="#000000">DB</text>
</g>
<!-- Redis -->
<g id="node4" class="node">
<title>Redis</title>
<ellipse fill="#ddddff" stroke="#000000" cx="38" cy="-18" rx="36.2938" ry="18"/>
<text text-anchor="middle" x="38" y="-14.3" font-family="Times,serif" font-size="14.00" fill="#000000">Redis</text>
</g>
<!-- ReadRedis&#45;&gt;Redis -->
<g id="edge11" class="edge">
<title>ReadRedis&#45;&gt;Redis</title>
<path fill="none" stroke="#ccccff" stroke-dasharray="5,2" d="M89.8715,-463.6177C51.2407,-448.9008 0,-420.6736 0,-374.4802 0,-374.4802 0,-374.4802 0,-99.8701 0,-75.5816 13.9305,-50.692 24.9226,-34.8332"/>
</g>
<!-- ReadDB -->
<g id="node6" class="node">
<title>ReadDB</title>
<ellipse fill="#bbee77" stroke="#000000" cx="233" cy="-374.4802" rx="48.1917" ry="18"/>
<text text-anchor="middle" x="233" y="-370.7802" font-family="Times,serif" font-size="14.00" fill="#000000">ReadDB</text>
</g>
<!-- ReadRedis&#45;&gt;ReadDB -->
<g id="edge2" class="edge">
<title>ReadRedis&#45;&gt;ReadDB</title>
<path fill="none" stroke="#000000" d="M149.1333,-459.1773C165.4828,-442.6659 190.2781,-417.6251 208.6719,-399.0492"/>
<polygon fill="#000000" stroke="#000000" points="211.5706,-401.0961 216.1198,-391.5276 206.5965,-396.1708 211.5706,-401.0961"/>
<text text-anchor="middle" x="239.5" y="-429.2802" font-family="Times,serif" font-size="14.00" fill="#000000">redis ≤ local</text>
<text text-anchor="middle" x="239.5" y="-414.2802" font-family="Times,serif" font-size="14.00" fill="#000000">(cache&#45;miss)</text>
</g>
<!-- WriteDB -->
<g id="node8" class="node">
<title>WriteDB</title>
<ellipse fill="#bbee77" stroke="#000000" cx="176" cy="-190.6102" rx="71.3357" ry="26.7407"/>
<text text-anchor="middle" x="176" y="-194.4102" font-family="Times,serif" font-size="14.00" fill="#000000">WriteDB</text>
<text text-anchor="middle" x="176" y="-179.4102" font-family="Times,serif" font-size="14.00" fill="#000000">(new event)</text>
</g>
<!-- ReadRedis&#45;&gt;WriteDB -->
<g id="edge6" class="edge">
<title>ReadRedis&#45;&gt;WriteDB</title>
<path fill="none" stroke="#000000" d="M190.2146,-472.2193C268.4138,-462.8931 403.7143,-433.1702 457,-338.4802 504.7013,-253.7138 353.1672,-215.5509 254.3726,-200.0175"/>
<polygon fill="#000000" stroke="#000000" points="254.8038,-196.5429 244.3906,-198.4962 253.7491,-203.463 254.8038,-196.5429"/>
<text text-anchor="middle" x="511.5" y="-327.2802" font-family="Times,serif" font-size="14.00" fill="#000000">redis &gt; local</text>
<text text-anchor="middle" x="511.5" y="-312.2802" font-family="Times,serif" font-size="14.00" fill="#000000">(cache&#45;hit)</text>
</g>
<!-- ReadDB&#45;&gt;DB -->
<g id="edge12" class="edge">
<title>ReadDB&#45;&gt;DB</title>
<path fill="none" stroke="#ccccff" stroke-dasharray="5,2" d="M272.4994,-363.9463C333.3313,-346.544 443,-309.9718 443,-272.4802 443,-272.4802 443,-272.4802 443,-99.8701 443,-77.2536 436.0347,-52.0113 430.5387,-35.6139"/>
</g>
<!-- WriteRedis1 -->
<g id="node7" class="node">
<title>WriteRedis1</title>
<ellipse fill="#bbee77" stroke="#000000" cx="146" cy="-272.4802" rx="68.7879" ry="18"/>
<text text-anchor="middle" x="146" y="-268.7802" font-family="Times,serif" font-size="14.00" fill="#000000">WriteRedis1</text>
</g>
<!-- ReadDB&#45;&gt;WriteRedis1 -->
<g id="edge3" class="edge">
<title>ReadDB&#45;&gt;WriteRedis1</title>
<path fill="none" stroke="#000000" d="M218.2416,-357.1773C204.4523,-341.0105 183.6883,-316.6665 167.9549,-298.2205"/>
<polygon fill="#000000" stroke="#000000" points="170.2756,-295.5479 161.1232,-290.2109 164.9498,-300.0905 170.2756,-295.5479"/>
</g>
<!-- WriteRedis1&#45;&gt;Redis -->
<g id="edge13" class="edge">
<title>WriteRedis1&#45;&gt;Redis</title>
<path fill="none" stroke="#ccccff" stroke-dasharray="5,2" d="M127.2219,-254.9132C117.0498,-244.6902 104.7999,-231.1529 96,-217.4802 72.2431,-180.5685 69.5293,-168.8101 57,-126.7401 47.7008,-95.5158 42.3735,-57.8092 39.8437,-35.9988"/>
</g>
<!-- WriteRedis1&#45;&gt;ReadRedis -->
<g id="edge4" class="edge">
<title>WriteRedis1&#45;&gt;ReadRedis</title>
<path fill="none" stroke="#ff0000" d="M144.7604,-290.5433C142.3187,-326.1225 136.8705,-405.5108 133.9453,-448.1345"/>
<polygon fill="#ff0000" stroke="#ff0000" points="130.4354,-448.1604 133.2424,-458.3766 137.4189,-448.6397 130.4354,-448.1604"/>
<text text-anchor="middle" x="158.5" y="-370.7802" font-family="Times,serif" font-size="14.00" fill="#aa0000">stale</text>
</g>
<!-- WriteRedis1&#45;&gt;WriteDB -->
<g id="edge5" class="edge">
<title>WriteRedis1&#45;&gt;WriteDB</title>
<path fill="none" stroke="#000000" d="M152.658,-254.3106C155.6047,-246.269 159.1812,-236.5088 162.6399,-227.0698"/>
<polygon fill="#000000" stroke="#000000" points="166.016,-228.0289 166.1704,-217.4352 159.4434,-225.6204 166.016,-228.0289"/>
</g>
<!-- WriteDB&#45;&gt;Done -->
<g id="edge8" class="edge">
<title>WriteDB&#45;&gt;Done</title>
<path fill="none" stroke="#ff0000" d="M233.1786,-174.3716C256.6182,-164.5868 281.3981,-149.4778 295,-126.7401 307.2615,-106.2432 307.8673,-93.1222 295,-73 278.3654,-46.9863 245.9407,-33.098 219.1338,-25.7891"/>
<polygon fill="#ff0000" stroke="#ff0000" points="219.73,-22.3305 209.1795,-23.2985 218.0309,-29.1212 219.73,-22.3305"/>
<text text-anchor="middle" x="331.5" y="-103.6701" font-family="Times,serif" font-size="14.00" fill="#aa0000">Invalid</text>
<text text-anchor="middle" x="331.5" y="-88.6701" font-family="Times,serif" font-size="14.00" fill="#aa0000">request</text>
</g>
<!-- WriteDB&#45;&gt;DB -->
<g id="edge15" class="edge">
<title>WriteDB&#45;&gt;DB</title>
<path fill="none" stroke="#ccccff" stroke-dasharray="5,2" d="M241.9557,-180.2654C280.6733,-171.4257 328.5954,-155.3879 363,-126.7401 392.4428,-102.2239 410.3323,-59.6266 418.5697,-35.6708"/>
</g>
<!-- WriteDB&#45;&gt;ReadRedis -->
<g id="edge7" class="edge">
<title>WriteDB&#45;&gt;ReadRedis</title>
<path fill="none" stroke="#ff0000" d="M122.8356,-208.6554C101.8756,-218.6798 79.9801,-233.4771 68,-254.4802 31.0005,-319.3467 81.6645,-407.2774 112.0552,-450.4192"/>
<polygon fill="#ff0000" stroke="#ff0000" points="109.3229,-452.6142 118.0124,-458.6758 114.9996,-448.5184 109.3229,-452.6142"/>
<text text-anchor="middle" x="76.5" y="-319.7802" font-family="Times,serif" font-size="14.00" fill="#aa0000">stale</text>
</g>
<!-- WriteRedis2 -->
<g id="node9" class="node">
<title>WriteRedis2</title>
<ellipse fill="#bbee77" stroke="#000000" cx="176" cy="-99.8701" rx="109.7032" ry="26.7407"/>
<text text-anchor="middle" x="176" y="-103.6701" font-family="Times,serif" font-size="14.00" fill="#000000">WriteRedis2</text>
<text text-anchor="middle" x="176" y="-88.6701" font-family="Times,serif" font-size="14.00" fill="#000000">(+broadcast event)</text>
</g>
<!-- WriteDB&#45;&gt;WriteRedis2 -->
<g id="edge9" class="edge">
<title>WriteDB&#45;&gt;WriteRedis2</title>
<path fill="none" stroke="#000000" d="M176,-163.3851C176,-155.0555 176,-145.7488 176,-136.8832"/>
<polygon fill="#000000" stroke="#000000" points="179.5001,-136.7631 176,-126.7632 172.5001,-136.7632 179.5001,-136.7631"/>
</g>
<!-- WriteRedis2&#45;&gt;Done -->
<g id="edge10" class="edge">
<title>WriteRedis2&#45;&gt;Done</title>
<path fill="none" stroke="#000000" d="M176,-72.6085C176,-64.2357 176,-55.0006 176,-46.5444"/>
<polygon fill="#000000" stroke="#000000" points="179.5001,-46.3732 176,-36.3732 172.5001,-46.3733 179.5001,-46.3732"/>
</g>
<!-- WriteRedis2&#45;&gt;Redis -->
<g id="edge14" class="edge">
<title>WriteRedis2&#45;&gt;Redis</title>
<path fill="none" stroke="#ccccff" stroke-dasharray="5,2" d="M133.8456,-74.8615C110.0663,-60.7542 81.2474,-43.657 61.4587,-31.9171"/>
</g>
</g>
</svg>
