<?xml version="1.0" encoding="UTF-8" standalone="no"?>
<!DOCTYPE svg PUBLIC "-//W3C//DTD SVG 1.1//EN"
 "http://www.w3.org/Graphics/SVG/1.1/DTD/svg11.dtd">
<!-- Generated by graphviz version 2.40.1 (20161225.0304)
 -->
<!-- Title: G Pages: 1 -->
<svg width="350pt" height="437pt"
 viewBox="0.00 0.00 349.95 437.00" xmlns="http://www.w3.org/2000/svg" xmlns:xlink="http://www.w3.org/1999/xlink">
<g id="graph0" class="graph" transform="scale(1 1) rotate(0) translate(4 433)">
<title>G</title>
<polygon fill="#ffffff" stroke="transparent" points="-4,4 -4,-433 345.9452,-433 345.9452,4 -4,4"/>
<!-- Start -->
<g id="node1" class="node">
<title>Start</title>
<ellipse fill="#e6e6e6" stroke="#000000" cx="53.9452" cy="-411" rx="34.394" ry="18"/>
<text text-anchor="middle" x="53.9452" y="-407.3" font-family="Times,serif" font-size="14.00" fill="#000000">Start</text>
</g>
<!-- ReadDB1 -->
<g id="node5" class="node">
<title>ReadDB1</title>
<ellipse fill="#bbee77" stroke="#000000" cx="53.9452" cy="-338" rx="53.8905" ry="18"/>
<text text-anchor="middle" x="53.9452" y="-334.3" font-family="Times,serif" font-size="14.00" fill="#000000">ReadDB1</text>
</g>
<!-- Start&#45;&gt;ReadDB1 -->
<g id="edge1" class="edge">
<title>Start&#45;&gt;ReadDB1</title>
<path fill="none" stroke="#000000" d="M53.9452,-392.9551C53.9452,-384.8828 53.9452,-375.1764 53.9452,-366.1817"/>
<polygon fill="#000000" stroke="#000000" points="57.4453,-366.0903 53.9452,-356.0904 50.4453,-366.0904 57.4453,-366.0903"/>
</g>
<!-- Respond -->
<g id="node2" class="node">
<title>Respond</title>
<ellipse fill="#bbee77" stroke="#000000" cx="261.9452" cy="-18" rx="50.8918" ry="18"/>
<text text-anchor="middle" x="261.9452" y="-14.3" font-family="Times,serif" font-size="14.00" fill="#000000">Respond</text>
</g>
<!-- DB -->
<g id="node3" class="node">
<title>DB</title>
<ellipse fill="#ddddff" stroke="#000000" cx="58.9452" cy="-18" rx="27" ry="18"/>
<text text-anchor="middle" x="58.9452" y="-14.3" font-family="Times,serif" font-size="14.00" fill="#000000">DB</text>
</g>
<!-- Redis -->
<g id="node4" class="node">
<title>Redis</title>
<ellipse fill="#ddddff" stroke="#000000" cx="156.9452" cy="-18" rx="36.2938" ry="18"/>
<text text-anchor="middle" x="156.9452" y="-14.3" font-family="Times,serif" font-size="14.00" fill="#000000">Redis</text>
</g>
<!-- ReadDB1&#45;&gt;DB -->
<g id="edge7" class="edge">
<title>ReadDB1&#45;&gt;DB</title>
<path fill="none" stroke="#ccccff" stroke-dasharray="5,2" d="M49.2713,-319.8356C45.9019,-305.1478 41.9452,-283.8802 41.9452,-265 41.9452,-265 41.9452,-265 41.9452,-91 41.9452,-71.7412 47.6271,-50.3517 52.4212,-35.732"/>
</g>
<!-- ReadRedis -->
<g id="node6" class="node">
<title>ReadRedis</title>
<ellipse fill="#bbee77" stroke="#000000" cx="150.9452" cy="-265" rx="59.5901" ry="18"/>
<text text-anchor="middle" x="150.9452" y="-261.3" font-family="Times,serif" font-size="14.00" fill="#000000">ReadRedis</text>
</g>
<!-- ReadDB1&#45;&gt;ReadRedis -->
<g id="edge2" class="edge">
<title>ReadDB1&#45;&gt;ReadRedis</title>
<path fill="none" stroke="#000000" d="M75.956,-321.4352C89.1328,-311.5186 106.0725,-298.7702 120.5168,-287.8997"/>
<polygon fill="#000000" stroke="#000000" points="122.8002,-290.5617 128.6857,-281.752 118.591,-284.9686 122.8002,-290.5617"/>
</g>
<!-- ReadRedis&#45;&gt;Respond -->
<g id="edge3" class="edge">
<title>ReadRedis&#45;&gt;Respond</title>
<path fill="none" stroke="#000000" d="M196.9774,-253.3723C209.7926,-247.9748 222.4999,-240.1808 230.9452,-229 271.8845,-174.8001 270.0681,-89.925 265.7508,-46.1729"/>
<polygon fill="#000000" stroke="#000000" points="269.2016,-45.534 264.6238,-35.9792 262.244,-46.3032 269.2016,-45.534"/>
<text text-anchor="middle" x="303.9452" y="-130.8" font-family="Times,serif" font-size="14.00" fill="#000000">redis = db</text>
</g>
<!-- ReadDB2 -->
<g id="node7" class="node">
<title>ReadDB2</title>
<ellipse fill="#bbee77" stroke="#000000" cx="150.9452" cy="-178" rx="53.8905" ry="18"/>
<text text-anchor="middle" x="150.9452" y="-174.3" font-family="Times,serif" font-size="14.00" fill="#000000">ReadDB2</text>
</g>
<!-- ReadRedis&#45;&gt;ReadDB2 -->
<g id="edge4" class="edge">
<title>ReadRedis&#45;&gt;ReadDB2</title>
<path fill="none" stroke="#000000" d="M150.9452,-246.9735C150.9452,-235.1918 150.9452,-219.5607 150.9452,-206.1581"/>
<polygon fill="#000000" stroke="#000000" points="154.4453,-206.0033 150.9452,-196.0034 147.4453,-206.0034 154.4453,-206.0033"/>
<text text-anchor="middle" x="188.9452" y="-217.8" font-family="Times,serif" font-size="14.00" fill="#000000">redis &lt; db</text>
</g>
<!-- ReadDB2&#45;&gt;DB -->
<g id="edge8" class="edge">
<title>ReadDB2&#45;&gt;DB</title>
<path fill="none" stroke="#ccccff" stroke-dasharray="5,2" d="M136.0648,-160.6367C124.9526,-147.1393 109.8643,-127.6369 98.9452,-109 84.7252,-84.7291 72.3971,-54.4733 65.3166,-35.6937"/>
</g>
<!-- WriteRedis -->
<g id="node8" class="node">
<title>WriteRedis</title>
<ellipse fill="#bbee77" stroke="#000000" cx="170.9452" cy="-91" rx="63.0888" ry="18"/>
<text text-anchor="middle" x="170.9452" y="-87.3" font-family="Times,serif" font-size="14.00" fill="#000000">WriteRedis</text>
</g>
<!-- ReadDB2&#45;&gt;WriteRedis -->
<g id="edge5" class="edge">
<title>ReadDB2&#45;&gt;WriteRedis</title>
<path fill="none" stroke="#000000" d="M155.0892,-159.9735C157.8245,-148.0751 161.4623,-132.2508 164.5635,-118.7606"/>
<polygon fill="#000000" stroke="#000000" points="167.977,-119.5333 166.8065,-109.0034 161.155,-117.965 167.977,-119.5333"/>
</g>
<!-- WriteRedis&#45;&gt;Respond -->
<g id="edge6" class="edge">
<title>WriteRedis&#45;&gt;Respond</title>
<path fill="none" stroke="#000000" d="M192.5109,-73.7C204.6979,-63.9236 220.0875,-51.5782 233.2792,-40.9958"/>
<polygon fill="#000000" stroke="#000000" points="235.5504,-43.6609 241.1607,-34.6733 231.1702,-38.2006 235.5504,-43.6609"/>
</g>
<!-- WriteRedis&#45;&gt;Redis -->
<g id="edge9" class="edge">
<title>WriteRedis&#45;&gt;Redis</title>
<path fill="none" stroke="#ccccff" stroke-dasharray="5,2" d="M167.4845,-72.9551C165.3307,-61.7241 162.5701,-47.3298 160.4146,-36.0904"/>
</g>
</g>
</svg>
